<svg width="18" height="18" viewBox="0 0 18 18" fill="none" xmlns="http://www.w3.org/2000/svg">
<path fill-rule="evenodd" clip-rule="evenodd" d="M8.99992 2.92495C5.64481 2.92495 2.92495 5.64482 2.92495 8.99995C2.92495 12.3551 5.64481 15.075 8.99992 15.075C12.355 15.075 15.0749 12.3551 15.0749 8.99995C15.0749 5.64482 12.355 2.92495 8.99992 2.92495ZM1.57495 8.99995C1.57495 4.89924 4.89922 1.57495 8.99992 1.57495C13.1006 1.57495 16.4249 4.89924 16.4249 8.99995C16.4249 13.1007 13.1006 16.425 8.99992 16.425C4.89922 16.425 1.57495 13.1007 1.57495 8.99995Z" fill="#FF4242"/>
<path d="M9.74992 12.1875C9.74992 12.6017 9.41413 12.9375 8.99992 12.9375C8.58571 12.9375 8.24993 12.6017 8.24993 12.1875C8.24993 11.7732 8.58571 11.4375 8.99992 11.4375C9.41413 11.4375 9.74992 11.7732 9.74992 12.1875Z" fill="#FF4242"/>
<path fill-rule="evenodd" clip-rule="evenodd" d="M8.32493 10.3125V5.06245H9.67493V10.3125H8.32493Z" fill="#FF4242"/>
</svg>
