<svg width="24" height="24" viewBox="0 0 24 24" fill="none" xmlns="http://www.w3.org/2000/svg">
<path d="M12 12C14.7614 12 17 9.76142 17 7C17 4.23858 14.7614 2 12 2C9.23858 2 7 4.23858 7 7C7 9.76142 9.23858 12 12 12Z" stroke="white" stroke-width="2"/>
<path d="M17.152 14H17.5147C18.268 14.0002 18.9953 14.2674 19.56 14.7513C20.1246 15.2352 20.4878 15.9026 20.5812 16.628L20.9841 19.752C21.0203 20.0334 20.9945 20.3191 20.9083 20.5901C20.822 20.8611 20.6774 21.1112 20.484 21.3238C20.2905 21.5364 20.0527 21.7066 19.7863 21.8232C19.5199 21.9398 19.231 22.0001 18.9387 22H5.06126C4.76902 22.0001 4.4801 21.9398 4.21369 21.8232C3.94728 21.7066 3.70947 21.5364 3.51604 21.3238C3.3226 21.1112 3.17797 20.8611 3.09175 20.5901C3.00552 20.3191 2.97967 20.0334 3.01591 19.752L3.41776 16.628C3.51122 15.9022 3.87466 15.2346 4.43975 14.7506C5.00484 14.2667 5.73265 13.9997 6.48631 14H6.84798" stroke="white" stroke-width="2" stroke-linecap="round" stroke-linejoin="round"/>
</svg>
