<svg width="145" height="54" viewBox="0 0 145 54" fill="none" xmlns="http://www.w3.org/2000/svg">
<g clip-path="url(#clip0_160_6099)">
<path d="M22.7309 0C10.1761 0 0 10.215 0 22.8179C0 29.9513 3.79766 35.7296 8.3645 40.5006C11.6685 43.9532 22.7286 54 22.7286 54C22.7286 54 34.6933 43.1189 35.7609 42.0471C40.7962 36.9903 45.4571 30.5137 45.4571 22.8179C45.4571 10.215 35.2811 0 22.7286 0H22.7309Z" fill="#FF5500"/>
<path d="M96.0391 14.792H90.5309V39.9815H96.0391V14.792Z" fill="#FF5500"/>
<path d="M93.3733 5.94629H93.2402C91.6208 5.94629 90.3081 7.26404 90.3081 8.88956C90.3081 10.5151 91.6208 11.8328 93.2402 11.8328H93.3733C94.9927 11.8328 96.3054 10.5151 96.3054 8.88956C96.3054 7.26404 94.9927 5.94629 93.3733 5.94629Z" fill="#FF5500"/>
<path d="M144.196 29.1858C142.534 26.4707 139.473 25.5465 136.776 24.7305C136.041 24.5093 135.35 24.2995 134.698 24.0621C133.008 23.4444 131.71 22.8821 131.687 21.7527C131.811 20.7386 132.252 20.0955 133.07 19.729C134.059 19.2842 135.552 19.2681 137.271 19.683C138.759 20.0425 140.305 20.7109 141.306 21.4254L142.219 22.08L144.881 17.6524L144.029 17.1038C139.779 14.368 133.237 12.9874 128.921 16.4193C127.699 17.3689 126.802 18.8878 126.455 20.5841C126.104 22.3082 126.358 24.0483 127.16 25.3667L127.178 25.3943C128.875 27.9734 131.846 28.8332 134.466 29.5891C135.281 29.8242 136.05 30.0478 136.769 30.3129C138.874 31.085 139.659 31.7442 139.669 32.7491C139.687 33.5742 139.405 34.1735 138.785 34.6344C136.707 35.9574 132.757 35.8721 128.609 32.6984L127.752 32.0438L124.827 36.1833L125.587 36.7987C128.356 39.0413 132.289 40.4357 135.855 40.4357C136.661 40.4357 137.432 40.3642 138.153 40.2213C140.863 39.6866 142.961 38.1862 144.224 35.8836L144.233 35.8675C145.138 34.1412 145.383 31.0942 144.199 29.1812L144.196 29.1858Z" fill="#FF5500"/>
<path d="M86.1385 21.5986C84.8159 18.5262 82.5268 16.2491 79.6935 15.1796C78.1804 14.5389 76.5938 14.2554 75.0325 14.3038L75.0394 14.2969C67.839 14.2969 62.0001 20.1581 62.0001 27.386V47.1293H67.5083V37.4144C69.8595 39.6224 73.0395 40.7057 76.3298 40.3968C80.8139 39.9774 84.6346 37.0848 86.3015 32.8531C87.7457 29.3959 87.6837 25.1872 86.1385 21.5963V21.5986ZM80.2399 32.4405C78.9427 34.2982 76.9635 35.3008 74.6651 35.2571C71.6826 35.2409 69.1936 33.4892 68.0089 30.5713C66.7254 27.4091 67.3591 23.9127 69.6276 21.6585L69.6368 21.6493C70.9708 20.2848 72.7456 19.5335 74.6376 19.5335C75.145 19.5335 75.657 19.5888 76.1576 19.6994C78.5064 20.2134 80.3226 21.8083 81.1377 24.0763L81.1446 24.0924C82.2008 26.8674 81.8449 30.1426 80.2422 32.4405H80.2399Z" fill="#FF5500"/>
<path d="M111.689 14.3135C105.558 14.3135 100.59 19.3011 100.59 25.4551V39.9525H106.054V25.4551C106.077 22.3504 108.592 19.8405 111.689 19.8405C114.786 19.8405 117.3 22.3504 117.323 25.4551V39.9525H122.788V25.4551C122.788 19.3011 117.819 14.3135 111.689 14.3135Z" fill="#FF5500"/>
</g>
<defs>
<clipPath id="clip0_160_6099">
<rect width="145" height="54" fill="white"/>
</clipPath>
</defs>
</svg>
