<svg width="104" height="194" viewBox="0 0 104 194" fill="none" xmlns="http://www.w3.org/2000/svg">
<g clip-path="url(#clip0_158_6425)">
<path d="M52.0019 0C23.2823 0 0 23.2698 0 51.9757C0 68.2254 8.68855 81.3871 19.1369 92.2519C26.6973 100.118 52.0019 123 52.0019 123C52.0019 123 79.3726 98.2148 81.8173 95.7753C93.3367 84.2564 104 69.505 104 51.9757C104 23.2698 80.7177 0 52.0019 0Z" fill="#FF5500"/>
</g>
<g clip-path="url(#clip1_158_6425)">
<path d="M42.8292 153.847H36.0618V184.729H42.8292V153.847Z" fill="#FF5500"/>
<path d="M39.5553 143H39.3925C37.4025 143 35.7893 144.616 35.7893 146.609C35.7893 148.602 37.4025 150.217 39.3925 150.217H39.5553C41.5453 150.217 43.1585 148.602 43.1585 146.609C43.1585 144.616 41.5453 143 39.5553 143Z" fill="#FF5500"/>
<path d="M102.012 171.493C99.9702 168.164 96.2113 167.03 92.8913 166.03C91.9887 165.757 91.1392 165.502 90.3393 165.208C88.2616 164.449 86.6689 163.762 86.6406 162.376C86.7928 161.131 87.3343 160.344 88.3395 159.894C89.5571 159.348 91.3905 159.331 93.5036 159.838C95.3299 160.277 97.2306 161.096 98.4588 161.975L99.5808 162.776L102.851 157.349L101.804 156.676C96.5829 153.322 88.5413 151.631 83.2356 155.839C81.7349 157.002 80.6306 158.863 80.2058 160.947C79.774 163.06 80.089 165.197 81.073 166.81L81.0943 166.846C83.179 170.007 86.8317 171.06 90.0526 171.989C91.0543 172.28 91.9993 172.549 92.8842 172.875C95.4715 173.822 96.4378 174.63 96.4484 175.863C96.4696 176.874 96.1263 177.611 95.3618 178.175C92.8063 179.798 87.9537 179.692 82.8569 175.803L81.8057 174.999L78.2131 180.075L79.1476 180.83C82.549 183.58 87.3839 185.289 91.7657 185.289C92.7568 185.289 93.7053 185.2 94.5902 185.027C97.9173 184.371 100.498 182.531 102.051 179.709L102.062 179.692C103.173 177.576 103.474 173.839 102.02 171.496L102.012 171.493Z" fill="#FF5500"/>
<path d="M22.7429 154.322C20.8811 153.539 18.9344 153.188 17.016 153.248L17.0231 153.241C8.17447 153.241 1 160.426 1 169.288V193.495H7.76744V181.585C10.6592 184.293 14.5667 185.619 18.6088 185.243C24.1197 184.729 28.8166 181.181 30.8624 175.995C32.6392 171.755 32.5613 166.597 30.6606 162.191C29.036 158.427 26.2222 155.63 22.7393 154.322H22.7429ZM23.4154 175.484C21.8226 177.76 19.391 178.99 16.563 178.937C12.8996 178.919 9.84156 176.771 8.3833 173.194C6.80471 169.32 7.58692 165.031 10.3725 162.269L10.3831 162.259C12.0219 160.586 14.2057 159.664 16.5276 159.664C17.1505 159.664 17.7806 159.731 18.3929 159.866C21.2811 160.497 23.5109 162.45 24.5126 165.233L24.5197 165.254C25.8151 168.657 25.3798 172.673 23.4118 175.488L23.4154 175.484Z" fill="#FF5500"/>
<path d="M62.0661 153.259C54.5341 153.259 48.425 159.373 48.425 166.92V184.693H55.1394V166.92C55.1677 163.113 58.2577 160.036 62.0626 160.036C65.8675 160.036 68.961 163.113 68.9857 166.92V184.693H75.7001V166.92C75.7001 159.377 69.5945 153.259 62.059 153.259H62.0661Z" fill="#FF5500"/>
</g>
<defs>
<clipPath id="clip0_158_6425">
<rect width="104" height="123" fill="white"/>
</clipPath>
<clipPath id="clip1_158_6425">
<rect width="102" height="50.495" fill="white" transform="translate(1 143)"/>
</clipPath>
</defs>
</svg>
