<svg width="14" height="14" viewBox="0 0 14 14" fill="none" xmlns="http://www.w3.org/2000/svg">
<path d="M10.5001 8.16683H8.75015V9.91683H10.5001V8.16683Z" fill="#5A5C63"/>
<path fill-rule="evenodd" clip-rule="evenodd" d="M9.45007 2.39183H3.96681V0.583496H2.91682V2.39229C2.77469 2.39325 2.64577 2.39625 2.53264 2.40549C2.35427 2.42007 2.16944 2.45274 1.98951 2.54442C1.72608 2.67864 1.51191 2.89282 1.37769 3.15624C1.28601 3.33617 1.25334 3.521 1.23876 3.69938C1.22508 3.86689 1.22509 4.06901 1.2251 4.29738V10.2863C1.22509 10.5147 1.22508 10.7168 1.23876 10.8843C1.25334 11.0627 1.28601 11.2475 1.37769 11.4274C1.51191 11.6908 1.72608 11.905 1.98951 12.0392C2.16944 12.1309 2.35427 12.1636 2.53264 12.1782C2.70014 12.1918 2.90223 12.1918 3.13059 12.1918H10.8695C11.0979 12.1918 11.3 12.1918 11.4675 12.1782C11.6459 12.1636 11.8307 12.1309 12.0106 12.0392C12.2741 11.905 12.4882 11.6908 12.6225 11.4274C12.7141 11.2475 12.7468 11.0627 12.7614 10.8843C12.7751 10.7168 12.7751 10.5147 12.7751 10.2863V4.29738C12.7751 4.06902 12.7751 3.86688 12.7614 3.69938C12.7468 3.52101 12.7141 3.33617 12.6225 3.15624C12.4882 2.89282 12.2741 2.67864 12.0106 2.54442C11.8307 2.45274 11.6459 2.42007 11.4675 2.40549C11.3 2.39181 11.0979 2.39182 10.8695 2.39183L10.5001 2.39183V0.583496H9.45007V2.39183ZM2.61815 3.45201C2.50471 3.46128 2.47344 3.47629 2.4662 3.47998C2.40034 3.51353 2.3468 3.56708 2.31324 3.63293C2.30955 3.64017 2.29454 3.67144 2.28527 3.78488C2.2755 3.90445 2.27509 4.06314 2.27509 4.31683V5.36689H11.7251V4.31683C11.7251 4.06314 11.7247 3.90445 11.7149 3.78488C11.7056 3.67144 11.6906 3.64017 11.6869 3.63293C11.6534 3.56708 11.5998 3.51353 11.534 3.47998C11.5267 3.47629 11.4954 3.46128 11.382 3.45201C11.2624 3.44224 11.1037 3.44183 10.8501 3.44183H3.15009C2.89641 3.44183 2.73772 3.44224 2.61815 3.45201ZM2.27509 10.2668V6.41689H11.7251V10.2668C11.7251 10.5205 11.7247 10.6792 11.7149 10.7988C11.7056 10.9122 11.6906 10.9435 11.6869 10.9507C11.6534 11.0166 11.5998 11.0701 11.534 11.1037C11.5267 11.1074 11.4954 11.1224 11.382 11.1317C11.2624 11.1414 11.1037 11.1418 10.8501 11.1418H3.15009C2.89641 11.1418 2.73772 11.1414 2.61815 11.1317C2.50471 11.1224 2.47344 11.1074 2.4662 11.1037C2.40034 11.0701 2.3468 11.0166 2.31324 10.9507C2.30955 10.9435 2.29454 10.9122 2.28527 10.7988C2.2755 10.6792 2.27509 10.5205 2.27509 10.2668Z" fill="#5A5C63"/>
</svg>
