<svg width="14" height="14" viewBox="0 0 14 14" fill="none" xmlns="http://www.w3.org/2000/svg">
<path fill-rule="evenodd" clip-rule="evenodd" d="M8.75016 3.4416C8.07362 3.4416 7.52517 3.99005 7.52517 4.6666C7.52517 5.34315 8.07362 5.8916 8.75016 5.8916C9.42671 5.8916 9.97516 5.34315 9.97516 4.6666C9.97516 3.99005 9.42671 3.4416 8.75016 3.4416ZM6.47517 4.6666C6.47517 3.41015 7.49372 2.3916 8.75016 2.3916C10.0066 2.3916 11.0252 3.41015 11.0252 4.6666C11.0252 5.92305 10.0066 6.9416 8.75016 6.9416C7.49372 6.9416 6.47517 5.92305 6.47517 4.6666ZM6.15398 9.40069C5.5089 9.83074 5.19178 10.3672 5.19178 10.8888C5.19178 10.9727 5.19125 11.0566 5.19284 11.1405C7.50595 11.1843 9.82013 11.1415 12.1334 11.1415C12.1914 11.1415 12.2494 11.1416 12.3074 11.1405C12.309 11.0566 12.3084 10.9727 12.3084 10.8888C12.3084 10.3672 11.9913 9.83074 11.3462 9.40069C10.7048 8.97309 9.78849 8.69155 8.7501 8.69155C7.71172 8.69155 6.79538 8.97309 6.15398 9.40069ZM5.57154 8.52704C6.40801 7.96939 7.53333 7.64155 8.7501 7.64155C9.96687 7.64155 11.0922 7.96939 11.9287 8.52704C12.7615 9.08224 13.3584 9.9069 13.3584 10.8888C13.3584 11.0246 13.3618 11.1611 13.3507 11.2966C13.3421 11.4021 13.3214 11.5329 13.2535 11.666C13.1612 11.8471 13.014 11.9944 12.8329 12.0866C12.6997 12.1545 12.5689 12.1752 12.4635 12.1838C12.3688 12.1916 12.2579 12.1916 12.149 12.1915H5.35116C5.24228 12.1916 5.13144 12.1916 5.03668 12.1838C4.93126 12.1752 4.80046 12.1545 4.66732 12.0866C4.48621 11.9944 4.33897 11.8471 4.24669 11.666C4.17886 11.5329 4.1581 11.4021 4.14949 11.2966C4.13842 11.1611 4.14178 11.0246 4.14179 10.8888C4.14179 9.9069 4.73875 9.08224 5.57154 8.52704ZM1.72971 9.17432C2.33703 8.76943 3.14084 8.53065 4.00614 8.51723C3.7226 8.84768 3.48546 9.22425 3.32378 9.64285C2.92719 9.72496 2.58156 9.86836 2.31214 10.048C1.87819 10.3373 1.69165 10.6793 1.69165 10.9861C1.69165 11.0376 1.69159 11.0892 1.69244 11.1407C2.15909 11.1484 2.62586 11.1415 3.09254 11.1415C3.09368 11.2175 3.09643 11.3019 3.10298 11.3821C3.1169 11.5525 3.15531 11.8369 3.31114 12.1427C3.31949 12.1591 3.32806 12.1754 3.33685 12.1915L1.83264 12.1915C1.73196 12.1915 1.6294 12.1915 1.54158 12.1849C1.44408 12.1775 1.32284 12.1598 1.19761 12.1014C0.992346 12.0058 0.827383 11.8408 0.731731 11.6355C0.673376 11.5103 0.65565 11.3891 0.648272 11.2916C0.640584 11.19 0.641646 11.0879 0.641657 10.9861C0.641657 10.219 1.10804 9.58877 1.72971 9.17432ZM3.15005 5.83321C3.15005 5.47883 3.43733 5.19154 3.79172 5.19154C4.1461 5.19154 4.43338 5.47883 4.43338 5.83321C4.43338 6.18759 4.1461 6.47488 3.79172 6.47488C3.43733 6.47488 3.15005 6.18759 3.15005 5.83321ZM3.79172 4.14154C2.85744 4.14154 2.10006 4.89893 2.10006 5.83321C2.10006 6.76749 2.85744 7.52488 3.79172 7.52488C4.72599 7.52488 5.48338 6.76749 5.48338 5.83321C5.48338 4.89893 4.72599 4.14154 3.79172 4.14154Z" fill="#5A5C63"/>
</svg>
