<svg width="62" height="62" viewBox="0 0 62 62" fill="none" xmlns="http://www.w3.org/2000/svg">
<circle cx="31" cy="31" r="31" fill="#EAEBEC"/>
<path fill-rule="evenodd" clip-rule="evenodd" d="M28.1219 26.2779C28.1219 24.6885 29.4103 23.4001 30.9996 23.4001C32.589 23.4001 33.8774 24.6885 33.8774 26.2779C33.8774 27.8672 32.589 29.1557 30.9996 29.1557C29.4103 29.1557 28.1219 27.8672 28.1219 26.2779ZM30.9996 21.6001C28.4162 21.6001 26.3219 23.6944 26.3219 26.2779C26.3219 28.8613 28.4162 30.9557 30.9996 30.9557C33.5831 30.9557 35.6774 28.8613 35.6774 26.2779C35.6774 23.6944 33.5831 21.6001 30.9996 21.6001ZM30.9997 32.1011C33.9319 32.1011 36.8051 32.9227 39.3091 34.4424C39.5024 34.5595 39.7365 34.7012 39.9327 34.9266C40.0987 35.1172 40.2346 35.3593 40.311 35.6001C40.4015 35.8857 40.4007 36.176 40.4 36.4189L40.3999 37.9304C40.3999 38.1847 40.3999 38.4268 40.3832 38.6308C40.3651 38.8532 40.3227 39.1083 40.1928 39.3633C40.0106 39.7208 39.7199 40.0114 39.3624 40.1936C39.1075 40.3235 38.8524 40.3659 38.6299 40.3841C38.426 40.4007 38.1839 40.4007 37.9296 40.4007H24.0701C23.8158 40.4007 23.5737 40.4007 23.3698 40.3841C23.1474 40.3659 22.8923 40.3235 22.6373 40.1936C22.2798 40.0114 21.9891 39.7208 21.8069 39.3633C21.677 39.1083 21.6346 38.8532 21.6165 38.6308C21.5998 38.4268 21.5998 38.1848 21.5999 37.9304L21.5997 36.4187C21.599 36.1758 21.5982 35.8855 21.6887 35.5999C21.7651 35.3591 21.9011 35.117 22.067 34.9264C22.2633 34.701 22.4973 34.5593 22.6906 34.4422C25.1946 32.9227 28.0677 32.1011 30.9997 32.1011ZM23.422 36.1077C25.61 34.7105 28.2089 33.9006 30.9997 33.9006C33.7906 33.9006 36.3896 34.7106 38.5777 36.1079C38.5815 36.1103 38.5998 36.1259 38.5998 36.1652V38.5002C38.5998 38.5555 38.5551 38.6002 38.4998 38.6002H23.4998C23.4446 38.6002 23.3998 38.5555 23.3998 38.5002V36.165C23.3998 36.1257 23.4182 36.1102 23.422 36.1077Z" fill="#989BA2"/>
</svg>
